<svg xmlns="http://www.w3.org/2000/svg" viewBox="0 0 128 128">
  <defs>
    <linearGradient id="g" x1="0" y1="0" x2="1" y2="1">
      <stop offset="0" stop-color="#32b6ff"></stop>
      <stop offset="1" stop-color="#a56cff"></stop>
    </linearGradient>
  </defs>
  <rect width="128" height="128" rx="30" fill="#081019"></rect>
  <path d="M22 67c0-22 16-39 36-39 14 0 23 8 31 19l17 24c6 8 3 21-6 26-9 5-19 2-25-6L51 57c-3-4-9-5-13-2-5 3-6 10-2 15l19 25c4 5 11 8 17 8 13 0 24-11 24-24" fill="none" stroke="url(#g)" stroke-width="11" stroke-linecap="round" stroke-linejoin="round"></path>
</svg>